HIERARCHY
ROOT Hips
{
	OFFSET 0.000000 71.427986 0.000000
	CHANNELS 6 Xposition Yposition Zposition Xrotation Yrotation Zrotation
	JOINT Pelvis
	{
		OFFSET 0.000000 0.000000 0.000000
		CHANNELS 3 Xrotation Yrotation Zrotation
		JOINT LeftUpLeg
		{
			OFFSET 6.797100 -2.508499 -1.318700
			CHANNELS 3 Xrotation Yrotation Zrotation
			JOINT LeftLeg
			{
				OFFSET 0.069008 -29.241863 0.690200
				CHANNELS 3 Xrotation Yrotation Zrotation
				JOINT LeftFoot
				{
					OFFSET -0.069008 -29.568123 -0.266800
					CHANNELS 3 Xrotation Yrotation Zrotation
					JOINT LeftToeBase
					{
						OFFSET 3.145500 -8.631000 16.059900
						CHANNELS 3 Xrotation Yrotation Zrotation
						End Site
						{
							OFFSET 0.000000 18.501587 0.000000
						}
					}
				}
			}
			JOINT Left_ShortSleeve
			{
				OFFSET 0.265923 -10.480953 1.153800
				CHANNELS 3 Xrotation Yrotation Zrotation
				End Site
				{
					OFFSET 1.725763 19.823879 0.000000
				}
			}
		}
		JOINT RightUpLeg
		{
			OFFSET -6.797100 -2.508499 -1.318700
			CHANNELS 3 Xrotation Yrotation Zrotation
			JOINT RightLeg
			{
				OFFSET -0.082453 -29.241932 0.688000
				CHANNELS 3 Xrotation Yrotation Zrotation
				JOINT RightFoot
				{
					OFFSET 0.082453 -29.568058 -0.264600
					CHANNELS 3 Xrotation Yrotation Zrotation
					JOINT RightToeBase
					{
						OFFSET -3.115300 -8.682800 16.113400
						CHANNELS 3 Xrotation Yrotation Zrotation
						End Site
						{
							OFFSET 0.000000 18.567114 0.000000
						}
					}
				}
			}
			JOINT Right_ShortSleeve
			{
				OFFSET -0.265923 -10.480953 1.153800
				CHANNELS 3 Xrotation Yrotation Zrotation
				End Site
				{
					OFFSET -1.725766 19.823910 0.000000
				}
			}
		}
	}
	JOINT Spine
	{
		OFFSET 0.000000 13.368103 0.470500
		CHANNELS 3 Xrotation Yrotation Zrotation
		JOINT Spine1
		{
			OFFSET 0.147000 13.837402 0.538800
			CHANNELS 3 Xrotation Yrotation Zrotation
			JOINT Spine2
			{
				OFFSET 0.168000 16.242897 -1.435500
				CHANNELS 3 Xrotation Yrotation Zrotation
				JOINT Neck
				{
					OFFSET 0.217200 18.631500 -1.679100
					CHANNELS 3 Xrotation Yrotation Zrotation
					JOINT Head
					{
						OFFSET 0.000000 6.599396 1.385900
						CHANNELS 3 Xrotation Yrotation Zrotation
						JOINT Hat
						{
							OFFSET -0.532200 27.220596 -10.096100
							CHANNELS 3 Xrotation Yrotation Zrotation
							End Site
							{
								OFFSET 0.000000 22.029861 0.000000
							}
						}
						JOINT HairD
						{
							OFFSET -10.777400 17.437393 -1.325900
							CHANNELS 3 Xrotation Yrotation Zrotation
							JOINT HairD1
							{
								OFFSET -3.290299 -11.051193 1.062200
								CHANNELS 3 Xrotation Yrotation Zrotation
								End Site
								{
									OFFSET 0.000000 11.579437 0.000000
								}
							}
						}
						JOINT HairB
						{
							OFFSET -10.777400 17.437393 1.467900
							CHANNELS 3 Xrotation Yrotation Zrotation
							JOINT HairB1
							{
								OFFSET -1.561200 -12.956299 3.590200
								CHANNELS 3 Xrotation Yrotation Zrotation
								End Site
								{
									OFFSET 0.000000 13.534866 0.000000
								}
							}
						}
						JOINT HairA
						{
							OFFSET 9.713100 17.437393 1.467900
							CHANNELS 3 Xrotation Yrotation Zrotation
							JOINT HairA1
							{
								OFFSET 1.561200 -12.956299 3.590200
								CHANNELS 3 Xrotation Yrotation Zrotation
								End Site
								{
									OFFSET 0.000000 13.534866 0.000000
								}
							}
						}
						JOINT HairC
						{
							OFFSET 9.713100 17.437393 -1.325900
							CHANNELS 3 Xrotation Yrotation Zrotation
							JOINT HairC1
							{
								OFFSET 3.290300 -11.051193 1.062200
								CHANNELS 3 Xrotation Yrotation Zrotation
								End Site
								{
									OFFSET 0.000000 11.579437 0.000000
								}
							}
						}
					}
				}
				JOINT LeftShoulder
				{
					OFFSET 5.101800 15.108002 -2.763700
					CHANNELS 3 Xrotation Yrotation Zrotation
					JOINT LeftArm
					{
						OFFSET 9.825497 2.506317 -1.597400
						CHANNELS 3 Xrotation Yrotation Zrotation
						JOINT LeftForeArm
						{
							OFFSET 21.966244 0.000000 0.000000
							CHANNELS 3 Xrotation Yrotation Zrotation
							JOINT LeftHand
							{
								OFFSET 33.879036 0.000000 0.000000
								CHANNELS 3 Xrotation Yrotation Zrotation
								JOINT LeftHandThumb1
								{
									OFFSET 6.715286 -2.359680 3.363841
									CHANNELS 3 Xrotation Yrotation Zrotation
									JOINT LeftHandThumb2
									{
										OFFSET 2.507072 -1.447464 1.447461
										CHANNELS 3 Xrotation Yrotation Zrotation
										JOINT LeftHandThumb3
										{
											OFFSET 2.898338 -1.673355 1.673357
											CHANNELS 3 Xrotation Yrotation Zrotation
											End Site
											{
												OFFSET -0.295959 3.727692 -0.131651
											}
										}
									}
								}
								JOINT LeftHandIndex1
								{
									OFFSET 14.190811 -0.254547 3.840278
									CHANNELS 3 Xrotation Yrotation Zrotation
									JOINT LeftHandIndex2
									{
										OFFSET 3.551727 0.000000 -0.000000
										CHANNELS 3 Xrotation Yrotation Zrotation
										JOINT LeftHandIndex3
										{
											OFFSET 2.894196 0.000000 0.000000
											CHANNELS 3 Xrotation Yrotation Zrotation
											End Site
											{
												OFFSET -1.000603 2.690872 0.366626
											}
										}
									}
								}
								JOINT LeftHandMiddle1
								{
									OFFSET 13.776489 0.000000 0.000000
									CHANNELS 3 Xrotation Yrotation Zrotation
									JOINT LeftHandMiddle2
									{
										OFFSET 3.438232 0.000000 0.000000
										CHANNELS 3 Xrotation Yrotation Zrotation
										JOINT LeftHandMiddle3
										{
											OFFSET 3.691551 0.000000 0.000000
											CHANNELS 3 Xrotation Yrotation Zrotation
											End Site
											{
												OFFSET -1.082298 3.499527 0.457670
											}
										}
									}
								}
								JOINT LeftHandRing1
								{
									OFFSET 13.966164 -0.268127 -3.067488
									CHANNELS 3 Xrotation Yrotation Zrotation
									JOINT LeftHandRing2
									{
										OFFSET 3.162567 0.000000 0.000000
										CHANNELS 3 Xrotation Yrotation Zrotation
										JOINT LeftHandRing3
										{
											OFFSET 3.324348 0.000000 0.000000
											CHANNELS 3 Xrotation Yrotation Zrotation
											End Site
											{
												OFFSET -0.861900 3.184998 0.405154
											}
										}
									}
								}
								JOINT LeftHandPinky1
								{
									OFFSET 13.131393 -0.168503 -5.746925
									CHANNELS 3 Xrotation Yrotation Zrotation
									JOINT LeftHandPinky2
									{
										OFFSET 2.849182 0.000000 0.000000
										CHANNELS 3 Xrotation Yrotation Zrotation
										JOINT LeftHandPinky3
										{
											OFFSET 2.805038 0.000000 0.000000
											CHANNELS 3 Xrotation Yrotation Zrotation
											End Site
											{
												OFFSET -0.882500 2.642609 0.325652
											}
										}
									}
								}
							}
							JOINT Left_Sleeve
							{
								OFFSET 6.592125 -0.646545 0.805568
								CHANNELS 3 Xrotation Yrotation Zrotation
								End Site
								{
									OFFSET -0.000179 20.275787 -0.000000
								}
							}
						}
					}
				}
				JOINT RightShoulder
				{
					OFFSET -5.731700 15.108002 -2.763700
					CHANNELS 3 Xrotation Yrotation Zrotation
					JOINT RightArm
					{
						OFFSET -9.825497 2.506317 -1.597400
						CHANNELS 3 Xrotation Yrotation Zrotation
						JOINT RightForeArm
						{
							OFFSET -21.966242 0.000000 0.000000
							CHANNELS 3 Xrotation Yrotation Zrotation
							JOINT RightHand
							{
								OFFSET -33.879032 0.000000 0.000000
								CHANNELS 3 Xrotation Yrotation Zrotation
								JOINT RightHandThumb1
								{
									OFFSET -6.715286 -2.359680 3.363841
									CHANNELS 3 Xrotation Yrotation Zrotation
									JOINT RightHandThumb2
									{
										OFFSET -2.507072 -1.447464 1.447461
										CHANNELS 3 Xrotation Yrotation Zrotation
										JOINT RightHandThumb3
										{
											OFFSET -2.898338 -1.673355 1.673357
											CHANNELS 3 Xrotation Yrotation Zrotation
											End Site
											{
												OFFSET 0.295959 3.727692 -0.131651
											}
										}
									}
								}
								JOINT RightHandIndex1
								{
									OFFSET -14.190811 -0.254547 3.840278
									CHANNELS 3 Xrotation Yrotation Zrotation
									JOINT RightHandIndex2
									{
										OFFSET -3.551727 0.000000 -0.000000
										CHANNELS 3 Xrotation Yrotation Zrotation
										JOINT RightHandIndex3
										{
											OFFSET -2.894196 0.000000 0.000000
											CHANNELS 3 Xrotation Yrotation Zrotation
											End Site
											{
												OFFSET 1.000603 2.690872 0.366626
											}
										}
									}
								}
								JOINT RightHandMiddle1
								{
									OFFSET -13.776489 0.000000 0.000000
									CHANNELS 3 Xrotation Yrotation Zrotation
									JOINT RightHandMiddle2
									{
										OFFSET -3.438232 0.000000 0.000000
										CHANNELS 3 Xrotation Yrotation Zrotation
										JOINT RightHandMiddle3
										{
											OFFSET -3.691551 0.000000 0.000000
											CHANNELS 3 Xrotation Yrotation Zrotation
											End Site
											{
												OFFSET 1.082298 3.499527 0.457670
											}
										}
									}
								}
								JOINT RightHandRing1
								{
									OFFSET -13.966164 -0.268127 -3.067488
									CHANNELS 3 Xrotation Yrotation Zrotation
									JOINT RightHandRing2
									{
										OFFSET -3.162567 0.000000 0.000000
										CHANNELS 3 Xrotation Yrotation Zrotation
										JOINT RightHandRing3
										{
											OFFSET -3.324348 0.000000 0.000000
											CHANNELS 3 Xrotation Yrotation Zrotation
											End Site
											{
												OFFSET 0.861900 3.184998 0.405154
											}
										}
									}
								}
								JOINT RightHandPinky1
								{
									OFFSET -13.131393 -0.168503 -5.746925
									CHANNELS 3 Xrotation Yrotation Zrotation
									JOINT RightHandPinky2
									{
										OFFSET -2.849182 0.000000 0.000000
										CHANNELS 3 Xrotation Yrotation Zrotation
										JOINT RightHandPinky3
										{
											OFFSET -2.805038 0.000000 0.000000
											CHANNELS 3 Xrotation Yrotation Zrotation
											End Site
											{
												OFFSET 0.882500 2.642609 0.325652
											}
										}
									}
								}
							}
							JOINT Right_Sleeve
							{
								OFFSET -6.592125 -0.646545 0.805568
								CHANNELS 3 Xrotation Yrotation Zrotation
								End Site
								{
									OFFSET 0.000179 20.275787 -0.000000
								}
							}
						}
					}
				}
				JOINT Bind_Right_JacketString
				{
					OFFSET -3.534800 11.969597 7.200700
					CHANNELS 3 Xrotation Yrotation Zrotation
					JOINT Bind_Right_JacketString1
					{
						OFFSET -0.319900 -6.102600 2.794100
						CHANNELS 3 Xrotation Yrotation Zrotation
						End Site
						{
							OFFSET 0.000000 6.719452 0.000000
						}
					}
				}
				JOINT Bind_Left_JacketString
				{
					OFFSET 2.904800 11.969597 7.200700
					CHANNELS 3 Xrotation Yrotation Zrotation
					JOINT Bind_Left_JacketString1
					{
						OFFSET 0.364800 -5.904503 3.186800
						CHANNELS 3 Xrotation Yrotation Zrotation
						End Site
						{
							OFFSET 0.000000 6.719513 0.000000
						}
					}
				}
				JOINT HairE
				{
					OFFSET 5.915200 17.612701 -11.592200
					CHANNELS 3 Xrotation Yrotation Zrotation
					JOINT HairE1
					{
						OFFSET 0.289200 -7.171898 -1.284500
						CHANNELS 3 Xrotation Yrotation Zrotation
						End Site
						{
							OFFSET 0.000000 7.291756 0.000000
						}
					}
				}
				JOINT HairF
				{
					OFFSET -0.864800 17.612701 -11.592200
					CHANNELS 3 Xrotation Yrotation Zrotation
					JOINT HairF1
					{
						OFFSET 0.000000 -14.087097 -2.127501
						CHANNELS 3 Xrotation Yrotation Zrotation
						End Site
						{
							OFFSET 0.000000 14.246841 0.000000
						}
					}
				}
				JOINT HairG
				{
					OFFSET -8.087700 17.612701 -11.592200
					CHANNELS 3 Xrotation Yrotation Zrotation
					JOINT HairG1
					{
						OFFSET -0.293600 -6.081398 -0.910100
						CHANNELS 3 Xrotation Yrotation Zrotation
						End Site
						{
							OFFSET 0.000000 6.156120 0.000000
						}
					}
				}
			}
		}
	}
	JOINT Pouch
	{
		OFFSET 0.000000 4.394501 10.847300
		CHANNELS 3 Xrotation Yrotation Zrotation
		End Site
		{
			OFFSET 0.000000 21.880577 0.000000
		}
	}
	JOINT Bag
	{
		OFFSET -13.229000 4.813004 -0.593300
		CHANNELS 3 Xrotation Yrotation Zrotation
		End Site
		{
			OFFSET 0.000000 21.880577 0.000000
		}
	}
	JOINT OccupyGuyFacialAnim_Joint
	{
		OFFSET 1.000000 -70.206398 -1.655000
		CHANNELS 3 Xrotation Yrotation Zrotation
		End Site
		{
			OFFSET 0.000000 21.880577 0.000000
		}
	}
}
MOTION
Frames: 4
Frame Time: 0.033333
0.108622 63.600227 1.181839 20.108613 -9.231720 5.727200 -0.000002 0.000000 -0.000000 -62.188394 6.616224 7.360842 109.326269 1.075147 -0.813660 17.846210 2.038943 20.750038 -0.000000 0.000001 -0.000003 -0.000005 0.000000 -0.000000 -19.101170 1.448250 -7.068679 44.055659 7.736665 -4.454090 -39.509171 -1.214957 2.648078 0.000000 0.000000 0.000000 0.000000 0.000001 -0.000000 28.383164 5.000565 -5.802644 2.094675 1.826381 -0.652189 2.078466 1.862282 -0.743077 -10.552125 1.482589 -0.774703 -26.263413 -3.238837 -5.520689 0.000000 -0.000000 0.000000 0.000000 -0.000000 0.000000 0.000000 -0.000000 0.000000 0.000000 -0.000000 0.000000 -0.000000 -0.000000 -0.000000 0.000000 -0.000000 0.000000 -0.000000 -0.000000 -0.000000 0.000000 -0.000000 0.000000 0.000000 -0.000000 0.000000 4.698797 9.230971 -16.197220 -6.899332 -15.126137 -58.978943 -20.359983 -53.630567 -9.105385 -1.310207 -26.246049 -6.681020 -2.540169 0.099822 12.393457 16.514117 12.272940 -5.655724 -0.000001 -0.000000 -0.000000 -4.292599 -6.224038 -38.907694 0.001757 -4.392631 -42.159780 -0.000000 0.000003 -0.000001 -0.650934 -2.111446 -38.946155 -0.044033 -4.883220 -50.793900 0.000005 0.000001 -0.000003 -0.586417 0.231619 -62.614584 -0.855563 -0.960350 -44.526372 -0.000002 0.000000 0.000001 -5.907812 -5.340946 -53.176243 -0.055430 -0.080005 -73.346663 -0.000001 -0.000001 -0.000001 0.000000 0.000000 0.000000 -0.115444 12.230480 -3.663399 -29.978851 2.260723 57.582606 -59.497279 77.081615 55.867413 -1.327176 14.725920 10.431524 24.918311 -21.323367 30.343033 9.041933 8.262095 -18.001797 -0.000003 0.000002 -0.000000 -0.063517 -3.017266 61.424397 0.006484 4.395169 66.609173 -0.000001 0.000000 0.000004 -1.221731 -0.129495 68.273690 -0.078684 4.899251 84.501762 0.000001 -0.000002 0.000001 0.882072 -4.623020 79.192662 -0.721556 1.141038 73.254359 0.000001 -0.000001 -0.000003 -3.962376 0.099749 86.766816 -0.027254 0.052911 54.416134 -0.000000 0.000000 0.000000 0.000002 0.000001 -0.000001 0.000001 0.000000 -0.000000 -0.000003 0.000000 -0.000000 0.000001 0.000000 -0.000000 0.000001 0.000000 -0.000000 0.000001 0.000000 -0.000000 -0.000003 0.000000 -0.000000 0.000001 0.000000 -0.000000 0.000001 0.000000 -0.000000 0.000001 0.000000 -0.000000 -0.000003 0.000000 -0.000000 -0.000002 0.000000 -0.000000 -0.000002 0.000000 -0.000000 -0.000002 0.000000 -0.000000 
0.201397 61.730438 0.896460 17.447635 -12.053516 5.824872 -0.000001 0.000000 -0.000000 -70.738746 3.951115 7.262870 109.134484 0.366531 -1.578477 6.556708 -1.786138 18.532743 -0.000000 0.000001 -0.000000 -0.000004 0.000000 0.000000 -20.432128 4.768917 -6.590303 53.124641 7.406141 -4.810473 -44.305337 -1.283473 2.481950 -0.000000 -0.000000 0.000000 -0.000000 -0.000000 -0.000000 27.322961 6.693269 -5.444576 2.078679 2.268002 -0.550593 2.066834 2.296749 -0.655273 -6.050763 0.750181 0.710182 -24.848314 -1.679506 -7.515628 0.000001 0.000000 0.000000 0.000001 0.000000 0.000000 0.000001 0.000000 0.000000 0.000001 0.000000 0.000000 0.000001 0.000000 0.000000 0.000001 0.000000 0.000000 0.000001 0.000000 0.000000 0.000001 0.000000 0.000000 0.000001 0.000000 0.000000 4.073657 7.391301 -15.914908 -9.409090 -19.252230 -56.208495 -49.096680 -51.287419 -29.785396 3.342615 -22.772064 -0.724027 0.121585 -3.479233 9.863481 16.644908 12.164406 -5.448901 -0.000001 0.000003 -0.000001 -3.833281 -5.375040 -28.576700 0.000162 -4.393821 -35.435954 -0.000003 0.000001 0.000000 -0.573883 -1.680705 -29.528513 -0.040038 -4.879749 -46.189701 -0.000001 0.000001 -0.000001 -0.390940 1.279931 -50.582195 -0.844560 -0.957731 -40.754762 0.000000 -0.000001 -0.000003 -3.540564 -4.347622 -43.858332 -0.017994 -0.044372 -67.102026 0.000001 -0.000001 0.000003 0.000000 0.000002 0.000001 0.658496 16.329399 -2.768310 -42.572207 12.740305 46.432630 5.825796 67.205578 -6.143525 -0.446236 15.816664 4.138250 24.918308 -21.323371 30.343030 9.041930 8.262099 -18.001792 -0.000001 -0.000001 0.000002 -0.063518 -3.017264 61.424403 0.006483 4.395166 66.609173 -0.000001 -0.000001 0.000002 -1.221733 -0.129495 68.273683 -0.078683 4.899251 84.501762 -0.000001 0.000001 -0.000002 0.882076 -4.623024 79.192662 -0.721555 1.141036 73.254359 -0.000000 -0.000001 -0.000000 -3.962376 0.099749 86.766816 -0.027254 0.052908 54.416131 -0.000002 0.000000 -0.000001 0.000002 -0.000001 0.000003 -0.000000 0.000000 -0.000000 -0.000002 -0.000000 0.000000 -0.000000 0.000000 -0.000000 -0.000000 0.000000 -0.000000 -0.000000 0.000000 -0.000000 -0.000002 -0.000000 0.000000 -0.000000 0.000000 -0.000000 -0.000000 0.000000 -0.000000 -0.000000 0.000000 -0.000000 -0.000002 -0.000000 0.000000 -0.000001 0.000000 -0.000000 -0.000001 0.000000 -0.000000 -0.000001 0.000000 -0.000000 
0.412135 59.656754 0.516895 14.737805 -14.746378 5.929312 -0.000002 0.000000 0.000000 -76.883109 1.011941 7.302398 105.942292 0.744143 -2.471758 -7.361989 -5.065168 16.173080 0.000000 0.000001 -0.000000 0.000003 0.000000 -0.000000 -21.505844 8.248552 -5.891084 61.799128 6.607976 -5.366136 -48.998336 -1.548026 2.776702 -0.000001 0.000000 -0.000000 0.000001 0.000000 -0.000000 26.217365 8.577423 -4.771604 2.090831 2.750186 -0.433754 2.085403 2.771047 -0.556279 -1.504905 -0.120746 2.424822 -23.382372 -0.055296 -10.050800 0.000002 -0.000000 -0.000000 0.000002 -0.000000 -0.000000 0.000002 -0.000000 -0.000000 0.000002 -0.000000 -0.000000 0.000001 0.000000 0.000000 0.000002 -0.000000 -0.000000 0.000001 0.000000 0.000000 0.000002 -0.000000 -0.000000 0.000002 -0.000000 -0.000000 3.444637 5.501591 -15.638664 -11.537930 -22.978969 -54.295390 -76.791933 -44.176574 -49.277219 7.118632 -16.777586 6.268535 3.036017 -7.802151 7.503152 16.960270 11.933746 -5.026663 0.000001 0.000001 -0.000002 -3.853206 -4.850199 -17.496552 -0.001291 -4.395126 -28.845511 0.000001 -0.000000 0.000001 -0.653868 -1.505055 -19.087239 -0.035945 -4.875574 -41.096336 0.000003 0.000001 -0.000001 -0.767622 2.369827 -36.945426 -0.836361 -0.951769 -36.541515 0.000001 -0.000001 0.000001 -1.532308 -2.673725 -33.110267 0.033335 0.047413 -59.943168 0.000002 -0.000002 0.000003 0.000001 -0.000002 -0.000001 1.317407 21.211940 -1.828419 -53.691550 25.730982 40.635975 23.744562 48.443848 -17.357065 0.608658 16.862480 -1.646122 24.918314 -21.323367 30.343033 9.041928 8.262094 -18.001797 -0.000001 -0.000001 -0.000000 -0.063512 -3.017268 61.424403 0.006485 4.395169 66.609173 -0.000001 0.000001 0.000000 -1.221727 -0.129494 68.273690 -0.078682 4.899255 84.501755 0.000002 -0.000001 0.000001 0.882079 -4.623024 79.192669 -0.721557 1.141040 73.254359 0.000002 -0.000000 -0.000004 -3.962374 0.099748 86.766816 -0.027254 0.052909 54.416134 0.000003 0.000001 0.000003 0.000002 0.000001 -0.000002 -0.000001 0.000000 0.000001 -0.000001 -0.000000 0.000000 -0.000001 0.000000 0.000000 -0.000001 0.000000 0.000000 -0.000001 0.000000 0.000001 -0.000001 -0.000000 -0.000000 -0.000001 0.000000 0.000000 -0.000001 0.000000 0.000000 -0.000001 0.000000 0.000001 -0.000001 -0.000000 -0.000000 -0.000002 0.000000 0.000000 -0.000002 0.000000 0.000000 -0.000002 0.000000 0.000000 
0.817814 57.895676 0.088785 12.736646 -19.368376 6.329625 0.000000 0.000002 -0.000000 -79.120508 -2.149175 8.590336 98.683420 0.984627 -3.777393 -19.379649 -6.168442 12.994138 -0.000000 0.000001 0.000000 0.000001 0.000000 -0.000003 -22.874625 12.672286 -5.290498 68.736941 7.301446 -5.966949 -52.366664 -1.787839 2.799489 -0.000000 0.000000 -0.000000 0.000000 0.000001 -0.000000 25.039735 10.545507 -4.056425 2.105072 3.246679 -0.317721 2.106239 3.259634 -0.457884 3.223992 -0.983327 4.128366 -21.733331 1.598191 -12.612711 -0.000001 0.000000 -0.000000 -0.000001 0.000000 -0.000000 -0.000001 0.000000 -0.000000 -0.000001 0.000000 -0.000000 -0.000001 0.000000 -0.000000 -0.000001 0.000000 -0.000000 -0.000001 0.000000 -0.000000 -0.000001 0.000000 -0.000000 -0.000001 0.000000 -0.000000 2.821595 3.583195 -15.372845 -13.864267 -26.561622 -52.822644 -96.805248 -32.295675 -62.661924 9.410851 -10.159812 12.857176 5.026842 -12.476495 5.417967 16.621653 12.241769 -5.650569 0.000000 0.000001 -0.000000 -3.939980 -4.934652 -5.818244 -0.002601 -4.396640 -22.104140 0.000001 0.000001 -0.000002 -0.570677 -1.812822 -8.724622 -0.032088 -4.870836 -35.785557 0.000001 -0.000001 0.000001 -1.521176 3.319745 -23.705254 -0.831779 -0.944786 -32.401642 -0.000001 0.000001 0.000000 -0.073508 -0.622763 -22.408307 -0.038512 -0.051227 -53.755559 -0.000001 0.000000 0.000003 0.000002 0.000003 0.000001 1.795569 26.350687 -1.027498 -62.863920 37.888152 41.226708 33.033472 32.761542 -17.285317 1.132961 15.342533 -5.037316 24.918311 -21.323371 30.343030 9.041930 8.262091 -18.001797 -0.000000 -0.000002 -0.000000 -0.063514 -3.017266 61.424397 0.006485 4.395166 66.609173 -0.000004 -0.000001 0.000000 -1.221731 -0.129492 68.273683 -0.078685 4.899255 84.501762 0.000002 -0.000003 -0.000003 0.882072 -4.623021 79.192669 -0.721557 1.141035 73.254359 0.000005 -0.000005 -0.000003 -3.962377 0.099753 86.766816 -0.027252 0.052901 54.416134 0.000004 0.000003 0.000004 0.000002 -0.000000 -0.000001 -0.000001 0.000000 -0.000000 -0.000001 0.000000 0.000000 -0.000001 0.000000 0.000000 -0.000001 0.000000 0.000000 -0.000001 0.000000 -0.000000 -0.000001 0.000000 0.000001 -0.000001 0.000000 0.000000 -0.000001 0.000000 0.000000 -0.000001 0.000000 -0.000000 -0.000001 0.000000 0.000001 0.000000 0.000002 -0.000000 0.000000 0.000002 -0.000000 0.000000 0.000002 -0.000000 
